<svg xmlns="http://www.w3.org/2000/svg" viewBox="0 0 300 360"><defs><linearGradient id="apron" x2="0" y2="1"><stop stop-color="#789079"/><stop offset="1" stop-color="#496350"/></linearGradient></defs><ellipse cx="150" cy="346" rx="105" ry="10" fill="#392629" opacity=".25"/><path d="M77 175Q58 218 68 315h164q10-97-10-140z" fill="url(#apron)" stroke="#35252a" stroke-width="7"/><path d="M83 174q67 29 134 0" fill="none" stroke="#e9c18d" stroke-width="8"/><path d="M72 210q-42 32-25 92M228 210q42 32 25 92" fill="none" stroke="#d69d81" stroke-width="24" stroke-linecap="round"/><circle cx="150" cy="103" r="68" fill="#d69d81" stroke="#35252a" stroke-width="7"/><path d="M82 92q4-82 75-73 68 3 62 78-23-24-48-43-29 42-89 38z" fill="#c5c7bd" stroke="#35252a" stroke-width="8"/><path d="M103 108q14-12 28 0M169 108q14-12 28 0" stroke="#35252a" stroke-width="7" fill="none" stroke-linecap="round"/><path d="M132 142q18 15 36 0" stroke="#7c3f45" stroke-width="7" fill="none" stroke-linecap="round"/><path d="M112 83q16-12 31-4M165 79q16-8 30 4" stroke="#8b6d66" stroke-width="6" fill="none"/><path d="M144 180q35 12 67 0" stroke="#f5d8a7" stroke-width="8" fill="none"/><path d="M103 282q47-36 94 0" fill="none" stroke="#f5d8a7" stroke-width="7"/><g transform="translate(204 240)"><ellipse cx="38" cy="22" rx="58" ry="18" fill="#f4e3c4" stroke="#35252a" stroke-width="6"/><path d="M-5 22q43 55 86 0" fill="#b86f55" stroke="#35252a" stroke-width="6"/><path d="M15 8q-4-30 5-43M40 8q-4-32 7-45" stroke="#fff3df" stroke-width="7" fill="none" stroke-linecap="round"/></g></svg>